<?xml version="1.0" standalone="no"?><!DOCTYPE svg PUBLIC "-//W3C//DTD SVG 1.1//EN" "http://www.w3.org/Graphics/SVG/1.1/DTD/svg11.dtd"><svg t="1537873970383" class="icon" style="" viewBox="0 0 1024 1024" version="1.1" xmlns="http://www.w3.org/2000/svg" p-id="1423" xmlns:xlink="http://www.w3.org/1999/xlink" width="200" height="200"><defs><style type="text/css"></style></defs><path d="M663.73487591 877.57062497a400.17753925 400.17753925 0 0 1-303.68251031 0A396.18327804 396.18327804 0 0 1 146.14186943 663.50194035a402.03625448 402.03625448 0 0 1 0-302.97066113A396.81603184 396.81603184 0 0 1 360.0523656 146.46259459a400.17753925 400.17753925 0 0 1 303.68251031 0 396.06463652 396.06463652 0 0 1 213.91049618 214.06868463 399.82161467 399.82161467 0 0 1 0 302.97066113 395.31324042 395.31324042 0 0 1-213.91049618 214.06868462zM831.9288751 379.51390765c-35.15741017-85.18454603-104.24626909-151.03053908-187.17662762-187.29526914-169.85497904-74.22998694-382.38132457 15.42338565-452.89388029 187.29526914-70.1566319 170.92275203 16.05614021 384.47732363 187.17662684 452.30067341 85.93594137 34.05009027 181.87731036 34.99922172 265.71725345 0a352.52323164 352.52323164 0 0 0 187.17662762-187.29526914c34.99922172-83.87949 34.68284406-181.00727273 0-265.00540427z m-149.25091768 214.93872148H498.07189421a27.88073539 27.88073539 0 0 1-17.67757239-6.28799563c-7.75124013-4.50837424-11.6268598-11.6268598-11.62686058-21.35545748V294.92256849c0-31.91454428 50.02713586-31.91454428 50.02713587 0v244.28270212h163.88336032c14.67199033 0 27.60390541 12.93191585 27.60390618 27.60390541a27.28752852 27.28752852 0 0 1-27.60390619 27.64345311z" fill="#cccccc" p-id="1424"></path></svg>