<?xml version="1.0" standalone="no"?><!DOCTYPE svg PUBLIC "-//W3C//DTD SVG 1.1//EN" "http://www.w3.org/Graphics/SVG/1.1/DTD/svg11.dtd"><svg t="1537861031845" class="icon" style="" viewBox="0 0 1024 1024" version="1.1" xmlns="http://www.w3.org/2000/svg" p-id="1388" xmlns:xlink="http://www.w3.org/1999/xlink" width="200" height="200"><defs><style type="text/css"></style></defs><path d="M922 881L540.4 117.7c-2.5-7.1-7.7-13.3-15-16.8-14.9-7.3-32.8-1.1-40.1 13.7l-383.5 767c-2.4 4.3-3.7 9.3-3.7 14.4 0 16.6 13.5 30 30 30 0.8 0 1.5 0 2.3-0.1 0.2 0 0.4 0 0.5-0.1 0.6-0.1 1.2-0.1 1.8-0.2 0.2 0 0.4-0.1 0.6-0.1 0.6-0.1 1.1-0.2 1.7-0.4 0.2 0 0.4-0.1 0.6-0.1 0.6-0.2 1.2-0.3 1.8-0.5 0.1 0 0.2 0 0.3-0.1L512 799.6l373.7 124.6c0.2 0.1 0.3 0.1 0.5 0.2l0.3 0.1h0.1l2.1 0.6c0.1 0 0.2 0.1 0.3 0.1 0.6 0.2 1.3 0.3 1.9 0.4 0.1 0 0.3 0 0.4 0.1 0.6 0.1 1.3 0.2 2 0.2h0.4c0.8 0.1 1.6 0.1 2.3 0.1 0.7 0 1.4 0 2-0.1 0.3 0 0.6-0.1 1-0.1 0.3 0 0.7-0.1 1-0.1 0.4-0.1 0.8-0.1 1.2-0.2h0.1c10.7-1.9 19.8-9.5 23.3-20.1 2.7-8.4 1.6-17.2-2.6-24.4zM521.5 739.5c-1.4-0.5-2.9-0.9-4.4-1.1-0.1 0-0.2 0-0.3-0.1-0.4-0.1-0.7-0.1-1.1-0.2-0.2 0-0.3 0-0.5-0.1-0.3 0-0.6-0.1-0.9-0.1H510.1c-0.3 0-0.6 0.1-0.9 0.1-0.2 0-0.3 0-0.5 0.1-0.4 0-0.7 0.1-1.1 0.2-0.1 0-0.2 0-0.3 0.1-1.5 0.3-3 0.6-4.4 1.1L187.2 844.6 512 195.1l324.8 649.5-315.3-105.1z" p-id="1389"></path></svg>