<?xml version="1.0" standalone="no"?><!DOCTYPE svg PUBLIC "-//W3C//DTD SVG 1.1//EN" "http://www.w3.org/Graphics/SVG/1.1/DTD/svg11.dtd"><svg t="1537874005798" class="icon" style="" viewBox="0 0 1024 1024" version="1.1" xmlns="http://www.w3.org/2000/svg" p-id="1660" xmlns:xlink="http://www.w3.org/1999/xlink" width="200" height="200"><defs><style type="text/css"></style></defs><path d="M350.9 472.4c5.4 8.1 27.9 42.3 141.3 204.3l0.9 0.9c6.3 8.1 17.1 13.5 27 13.5 10.8 0 21.6-5.4 27-14.4 48.6-70.2 140.4-202.5 144-207l0.9-0.9c18.9-31.5 29.7-68.4 29.7-105.3 0-110.7-90-201.6-201.6-201.6s-201.6 90-201.6 201.6C318.5 402.2 329.3 439.1 350.9 472.4L350.9 472.4zM519.2 213.2c82.8 0 150.3 67.5 150.3 150.3 0 27-7.2 53.1-21.6 78.3-5.4 8.1-79.2 114.3-127.8 184.5-37.8-54-119.7-171.9-127.8-182.7C377 420.2 368 392.3 368 364.4 368.9 281.6 436.4 213.2 519.2 213.2z" fill="#cccccc" p-id="1661"></path><path d="M519.2 476c61.2 0 111.6-50.4 111.6-111.6s-50.4-111.6-111.6-111.6c-61.2 0-111.6 50.4-111.6 111.6S457.1 476 519.2 476zM519.2 303.2c33.3 0 60.3 27 60.3 60.3 0 34.2-27 60.3-60.3 60.3-33.3 0-60.3-27-60.3-60.3S485.9 303.2 519.2 303.2z" fill="#cccccc" p-id="1662"></path><path d="M946.7 737.9L821.6 495.8 718.1 495.8l-40.5 52.2 112.5 0 114.3 218.7 1.8 1.8c6.3 8.1 6.3 18.9 1.8 27.9-4.5 9-13.5 14.4-24.3 14.4L141.2 810.8c-10.8 0-19.8-5.4-24.3-14.4-4.5-9.9-3.6-19.8 2.7-28.8l0.9-0.9L233 547.1l127.8 0-42.3-52.2-117 0-125.1 243c-17.1 24.3-18.9 54.9-5.4 80.1 14.4 27 40.5 43.2 71.1 43.2l742.5 0c29.7 0 56.7-16.2 70.2-43.2C966.5 791.9 963.8 761.3 946.7 737.9z" fill="#cccccc" p-id="1663"></path></svg>