<?xml version="1.0" standalone="no"?><!DOCTYPE svg PUBLIC "-//W3C//DTD SVG 1.1//EN" "http://www.w3.org/Graphics/SVG/1.1/DTD/svg11.dtd"><svg t="1537873966850" class="icon" style="" viewBox="0 0 1024 1024" version="1.1" xmlns="http://www.w3.org/2000/svg" p-id="1290" xmlns:xlink="http://www.w3.org/1999/xlink" width="200" height="200"><defs><style type="text/css"></style></defs><path d="M815.75 208.25h-90V146.375c0-11.25-11.25-22.5-22.5-22.5s-22.5 11.25-22.5 22.5v61.875H326.375V146.375c0-11.25-11.25-22.5-22.5-22.5s-22.5 11.25-22.5 22.5v61.875H208.25C135.125 208.25 78.875 275.75 78.875 354.5v399.375c0 78.75 56.25 146.25 129.375 146.25h450c11.25 0 22.5-11.25 22.5-22.5s-11.25-22.5-22.5-22.5h-450c-50.625 0-90-45-90-106.875v-337.5h787.5v337.5c0 56.25-33.75 101.25-78.75 101.25-11.25 0-22.5 11.25-16.875 22.5 0 11.25 11.25 22.5 22.5 16.875 67.5-5.625 118.125-67.5 118.125-146.25V354.5c-5.625-78.75-61.875-146.25-135-146.25zM118.25 371.375v-16.875c0-56.25 39.375-106.875 90-106.875h73.125v56.25c0 11.25 11.25 22.5 22.5 22.5s22.5-11.25 22.5-22.5v-56.25H680.75v56.25c0 11.25 11.25 22.5 22.5 22.5s22.5-11.25 22.5-22.5v-56.25h90c50.625 0 90 45 90 106.875v16.875H118.25z" fill="#cccccc" p-id="1291"></path><path d="M343.25 596.375m-50.625 0a50.625 50.625 0 1 0 101.25 0 50.625 50.625 0 1 0-101.25 0Z" fill="#cccccc" p-id="1292"></path><path d="M523.25 596.375m-50.625 0a50.625 50.625 0 1 0 101.25 0 50.625 50.625 0 1 0-101.25 0Z" fill="#cccccc" p-id="1293"></path><path d="M708.875 596.375m-50.625 0a50.625 50.625 0 1 0 101.25 0 50.625 50.625 0 1 0-101.25 0Z" fill="#cccccc" p-id="1294"></path></svg>