<?xml version="1.0" standalone="no"?><!DOCTYPE svg PUBLIC "-//W3C//DTD SVG 1.1//EN" "http://www.w3.org/Graphics/SVG/1.1/DTD/svg11.dtd"><svg t="1537947009517" class="icon" style="" viewBox="0 0 1024 1024" version="1.1" xmlns="http://www.w3.org/2000/svg" p-id="1131" xmlns:xlink="http://www.w3.org/1999/xlink" width="200" height="200"><defs><style type="text/css"></style></defs><path d="M653.25279028 229.49441942L653.25279028 172.99330347c0-31.20274146-25.2983745-56.50111596-56.50111596-56.50111597L427.24832567 116.4921875c-31.20274146 0-56.50111596 25.2983745-56.50111595 56.50111596l0 56.50111597L144.74274587 229.49441942l-1e-8 56.50111596 84.75167433 0 0 565.01116039c0 31.20274146 25.2983745 56.50111596 56.50111597 56.50111595l452.00892846 0c31.20274146 0 56.50111596-25.2983745 56.50111596-56.50111595L794.50558058 285.99553538l84.75167433 0L879.25725413 229.49441942 653.25279028 229.49441942zM427.24832567 172.99330347l169.50334788-1e-8 0 56.50111596L427.24832567 229.49441942 427.24832567 172.99330347zM738.00446462 851.00669653L285.99553538 851.00669653 285.99553538 285.99553538l452.00892846 0L738.00446462 851.00669653z" fill="#AEAEAE" p-id="1132"></path><path d="M370.74720972 370.74720972l56.50111596 0-1e-8 395.5078125-56.50111595 0 0-395.5078125Z" fill="#AEAEAE" p-id="1133"></path><path d="M483.74944164 370.74720972l56.50111595 0 0 395.5078125-56.50111596 0 0-395.5078125Z" fill="#AEAEAE" p-id="1134"></path><path d="M596.75167433 370.74720972l56.50111595 0 0 395.5078125-56.50111595 0 0-395.5078125Z" fill="#AEAEAE" p-id="1135"></path></svg>