<?xml version="1.0" standalone="no"?><!DOCTYPE svg PUBLIC "-//W3C//DTD SVG 1.1//EN" "http://www.w3.org/Graphics/SVG/1.1/DTD/svg11.dtd"><svg t="1537860983721" class="icon" style="" viewBox="0 0 1024 1024" version="1.1" xmlns="http://www.w3.org/2000/svg" p-id="1034" xmlns:xlink="http://www.w3.org/1999/xlink" width="200" height="200"><defs><style type="text/css"></style></defs><path d="M743.6818963 940.53262222c-59.83194075-4.2477037-101.94488889-20.51034075-141.87330371-43.20521481-92.47857778-52.55016297-166.63134815-125.97475555-235.08005926-205.83158519-75.73048889-88.35223703-149.03371852-178.28219259-197.70026666-285.20296297-22.9376-50.48699259-41.14204445-102.30897778-42.5984-158.62139258-1.09226667-39.68568889 12.74311111-73.0605037 41.50613333-100.12444445 35.80207408-33.7389037 78.03638518-55.22014815 126.70293333-63.10874074 25.72894815-4.12634075 46.48201482 4.2477037 59.10376297 28.27757037 28.39893333 54.00651852 53.27834075 109.34802963 68.44871111 168.69451852 8.8594963 34.70980741 2.91271111 48.1810963-26.94257778 67.59917038-2.66998518 1.82044445-5.5826963 3.39816297-8.37404445 5.09724443-34.22435555 20.99579259-38.10797037 34.46708148-17.84035555 69.66234074 25.12213333 43.81202963 56.79786667 83.01226667 89.20177778 121.48432593 37.0157037 44.05475555 72.45368889 89.80859259 117.9648 125.8533926 25.97167408 20.51034075 37.0157037 19.53943703 60.92420741-3.2768 7.64586667-7.28177778 15.17037037-14.80628148 23.42305185-21.11715556 15.89854815-12.1362963 32.64663703-15.77718518 52.18607408-6.91768889 62.62328889 28.5202963 118.20752592 67.72053333 171.3645037 110.56165925 10.07312592 8.13131852 13.71401482 19.78216297 13.59265185 32.64663705-0.36408889 64.92918518-102.18761482 160.19911111-154.0096 157.52912592z" fill="#1296db" p-id="1035"></path></svg>