<?xml version="1.0" standalone="no"?><!DOCTYPE svg PUBLIC "-//W3C//DTD SVG 1.1//EN" "http://www.w3.org/Graphics/SVG/1.1/DTD/svg11.dtd"><svg t="1538096573278" class="icon" style="" viewBox="0 0 1024 1024" version="1.1" xmlns="http://www.w3.org/2000/svg" p-id="1184" xmlns:xlink="http://www.w3.org/1999/xlink" width="200" height="200"><defs><style type="text/css"></style></defs><path d="M976.11257067 285.95674667c-0.594688-15.5107072-13.34645227-27.902832-29.00229974-27.902832L375.41689493 258.05391467c-16.02961493 0-29.0241344 12.99708907-29.0241344 29.02541866l0 5.80559787c0 16.03346773 12.99452053 29.02927253 29.0241344 29.02927253l525.5440128 0-50.66411413 193.12474454-497.41512213 38.27584213-105.67086614-330.08932267 0-0.0038528c0-16.03346773-12.9958048-29.0305568-29.02798826-29.0305568L77.0734016 194.19105707c-16.03346773 0-29.02927253 12.99708907-29.02927253 29.0305568l0 5.80559786c0 16.0283296 12.99452053 29.02798827 29.02927253 29.02798827l111.9465632 0 128.951056 402.79929493c-22.9166976 17.5015648-37.70042027 45.10641067-37.70042027 76.16250454 0 52.90286507 42.89077867 95.79235947 95.79492907 95.79235946l6.7714848 0c52.9041504 0 95.79492907-42.8894944 95.79492907-95.79235946 0-11.19504213-1.9304896-21.94181973-5.46008747-31.92950187l243.14150827 0c-3.52959787 9.9876832-5.46008747 20.73574507-5.46008747 31.92950187 0 52.90286507 42.8894944 95.79235947 95.79364373 95.79235946l7.57938774 0c52.9080032 0 95.7974976-42.8894944 95.7974976-95.79235946s-42.8894944-95.79235947-95.7974976-95.79235947l-0.16055254 0-7.41883413 0L382.83187627 641.22463787l-1.80846934 0-8.12912106-25.38921387 498.3026592-38.3439168c15.43492587 2.3029728 30.86985173-6.19991573 36.27085653-20.90657387l0.6345056-2.4172864c0.25303147-0.822032 0.4700992-1.6556224 0.65248747-2.49692053l64.67975146-246.5439488c1.43598613-3.08647147 2.34535893-6.47092907 2.61123414-10.03263787C976.53386133 292.01922987 976.53899947 288.9468864 976.11257067 285.95674667L976.11257067 285.95674667zM808.90622293 705.0862112l2.25801814 0c17.63386027 0 31.92950187 14.29949547 31.92950186 31.93335573 0 17.63514453-14.2956416 31.92950187-31.92950186 31.92950187l-2.25801814 0c-17.63386027 0-31.93335573-14.29435733-31.93335573-31.92950187C776.9728672 719.38570667 791.27236267 705.0862112 808.90622293 705.0862112L808.90622293 705.0862112zM380.57514347 705.0862112c17.6389984 0 31.93464 14.29949547 31.93464 31.93335573 0 17.63514453-14.2956416 31.92950187-31.93464 31.92950187l-2.25288 0c-17.63386027 0-31.93335573-14.29435733-31.93335574-31.92950187 0-17.63386027 14.29949547-31.93335573 31.93335574-31.93335573L380.57514347 705.0862112 380.57514347 705.0862112zM380.57514347 705.0862112" fill="#1F562E" p-id="1185"></path></svg>