<?xml version="1.0" standalone="no"?><!DOCTYPE svg PUBLIC "-//W3C//DTD SVG 1.1//EN" "http://www.w3.org/Graphics/SVG/1.1/DTD/svg11.dtd"><svg t="1537873953941" class="icon" style="" viewBox="0 0 1024 1024" version="1.1" xmlns="http://www.w3.org/2000/svg" p-id="1136" xmlns:xlink="http://www.w3.org/1999/xlink" width="200" height="200"><defs><style type="text/css"></style></defs><path d="M943.454707 195.605612H80.543247c-31.766431 0-57.52402 25.757589-57.52402 57.526066v517.736644c0 31.769501 25.757589 57.52709 57.52402 57.527089h862.91146c31.741872 0 57.525043-25.757589 57.525043-57.527089V253.131678c0-31.768477-25.783171-57.526066-57.525043-57.526066z m0 575.26271H80.543247V253.131678h862.91146v517.736644z" fill="#cccccc" p-id="1137"></path><path d="M138.070336 368.213487h57.52709v287.630331h-57.52709zM828.401551 368.213487h57.52709v287.630331h-57.52709zM454.466771 540.791686h28.760986v57.497413H396.939681v57.553696h86.288076v57.49946h57.542439v-57.49946h28.76201c47.58262 0 86.288076-38.734109 86.288076-86.317752 0-47.581597-38.705456-86.288076-86.288076-86.288076h-28.76201v-57.528113h86.2891v-57.497414h-86.2891v-57.553695h-57.542439v57.553695h-28.760986c-47.583643 0-86.288076 38.677827-86.288077 86.260447s38.704433 86.319799 86.288077 86.319799z m86.304449 0h28.762009c15.842795 0 28.76201 12.863957 28.76201 28.73438s-12.919215 28.763033-28.76201 28.763033h-28.762009v-57.497413z m-86.304449-115.081809h28.760986v57.528113h-28.760986c-15.871447 0-28.76201-12.866003-28.76201-28.764056-0.001023-15.870424 12.890562-28.764056 28.76201-28.764057z" fill="#cccccc" p-id="1138"></path></svg>