<?xml version="1.0" standalone="no"?><!DOCTYPE svg PUBLIC "-//W3C//DTD SVG 1.1//EN" "http://www.w3.org/Graphics/SVG/1.1/DTD/svg11.dtd"><svg t="1537866689652" class="icon" style="" viewBox="0 0 1024 1024" version="1.1" xmlns="http://www.w3.org/2000/svg" p-id="1070" xmlns:xlink="http://www.w3.org/1999/xlink" width="200" height="200"><defs><style type="text/css"></style></defs><path d="M882.048 209.21599998L209.27999999 882.048c-18.62399997 18.56-48.768 18.56-67.32799999 0s-18.56-48.70399998 0-67.32799999L814.72000001 141.952c18.62399997-18.56 48.768-18.56 67.32799999 0 18.56 18.56 18.56 48.70399998 0 67.26399998z" fill="#d81e06" p-id="1071"></path><path d="M882.048 882.048c-18.56 18.56-48.70399998 18.56-67.32799999 0L141.952 209.21599998c-18.56-18.62399997-18.56-48.70399998 0-67.26399998 18.56-18.56 48.70399998-18.56 67.32799999 0L882.048 814.72000001c18.56 18.62399997 18.56 48.768 0 67.32799999z" fill="#d81e06" p-id="1072"></path></svg>